<svg xmlns="http://www.w3.org/2000/svg" xmlns:xlink="http://www.w3.org/1999/xlink" width="500" zoomAndPan="magnify" viewBox="0 0 375 374.999991" height="500" preserveAspectRatio="xMidYMid meet" version="1.0"><defs><clipPath id="8ea7d087cd"><path d="M 59.28125 154.09375 L 315.78125 154.09375 L 315.78125 220.84375 L 59.28125 220.84375 Z M 59.28125 154.09375 " clip-rule="nonzero"/></clipPath></defs><g clip-path="url(#8ea7d087cd)"><path fill="#3767fa" d="M 63.386719 175.054688 C 63.46875 174.675781 63.546875 174.308594 63.648438 173.941406 L 63.96875 172.867188 C 64.140625 172.164062 64.457031 171.496094 64.675781 170.839844 C 65.25 169.546875 65.855469 168.34375 66.585938 167.222656 C 67.34375 166.128906 68.128906 165.070312 69.058594 164.140625 C 70.898438 162.269531 73.058594 160.714844 75.621094 159.574219 L 76.101562 159.34375 L 76.597656 159.15625 C 76.933594 159.035156 77.269531 158.894531 77.617188 158.769531 C 78.3125 158.582031 79.03125 158.296875 79.785156 158.132812 C 80.535156 157.941406 81.3125 157.792969 82.125 157.65625 C 82.132812 157.65625 82.140625 157.652344 82.148438 157.652344 C 83.109375 157.503906 83.363281 156.214844 82.511719 155.75 C 81.703125 155.308594 80.835938 154.960938 79.941406 154.691406 C 79.050781 154.421875 78.128906 154.308594 77.1875 154.183594 C 76.714844 154.128906 76.246094 154.148438 75.769531 154.140625 L 75.050781 154.140625 C 74.808594 154.144531 74.574219 154.183594 74.335938 154.207031 C 70.496094 154.5625 66.761719 156.4375 64.023438 159.265625 C 62.640625 160.671875 61.554688 162.347656 60.71875 164.113281 C 59.910156 165.902344 59.453125 167.820312 59.289062 169.730469 C 59.269531 170.210938 59.285156 170.691406 59.285156 171.171875 C 59.289062 171.40625 59.28125 171.640625 59.300781 171.878906 C 59.324219 172.113281 59.359375 172.351562 59.390625 172.585938 C 59.460938 173.054688 59.503906 173.515625 59.605469 173.972656 C 59.710938 174.429688 59.828125 174.878906 59.96875 175.320312 C 60.207031 176.03125 60.496094 176.722656 60.839844 177.378906 C 61.371094 178.386719 62.890625 178.136719 63.046875 177.007812 C 63.136719 176.332031 63.25 175.6875 63.386719 175.054688 Z M 311.921875 177.007812 C 312.078125 178.136719 313.59375 178.386719 314.125 177.378906 C 314.472656 176.722656 314.757812 176.03125 314.996094 175.320312 C 315.140625 174.878906 315.257812 174.429688 315.363281 173.972656 C 315.460938 173.515625 315.507812 173.054688 315.578125 172.585938 C 315.605469 172.351562 315.644531 172.113281 315.664062 171.878906 C 315.683594 171.640625 315.675781 171.40625 315.683594 171.171875 C 315.683594 170.691406 315.695312 170.210938 315.675781 169.730469 C 315.515625 167.820312 315.058594 165.902344 314.246094 164.113281 C 313.414062 162.347656 312.324219 160.671875 310.941406 159.265625 C 308.207031 156.4375 304.46875 154.5625 300.632812 154.207031 C 300.394531 154.183594 300.15625 154.144531 299.917969 154.140625 L 299.199219 154.140625 C 298.722656 154.148438 298.25 154.128906 297.777344 154.183594 C 296.835938 154.308594 295.914062 154.421875 295.023438 154.691406 C 294.128906 154.960938 293.261719 155.308594 292.457031 155.75 C 291.601562 156.214844 291.859375 157.503906 292.820312 157.652344 C 292.828125 157.652344 292.835938 157.65625 292.84375 157.65625 C 293.65625 157.792969 294.433594 157.941406 295.183594 158.132812 C 295.933594 158.296875 296.652344 158.582031 297.347656 158.769531 C 297.695312 158.894531 298.035156 159.035156 298.367188 159.15625 L 298.863281 159.34375 L 299.347656 159.574219 C 301.910156 160.714844 304.070312 162.269531 305.910156 164.140625 C 306.839844 165.070312 307.621094 166.128906 308.382812 167.222656 C 309.113281 168.34375 309.71875 169.546875 310.289062 170.839844 C 310.507812 171.496094 310.828125 172.164062 310.996094 172.867188 L 311.320312 173.941406 C 311.421875 174.308594 311.5 174.675781 311.578125 175.054688 C 311.71875 175.6875 311.828125 176.332031 311.921875 177.007812 Z M 186.539062 220.882812 C 166.207031 220.882812 146.007812 216.71875 126.503906 208.503906 C 107.628906 200.554688 89.363281 188.800781 72.210938 173.5625 C 70.914062 172.410156 70.796875 170.421875 71.949219 169.121094 C 73.101562 167.824219 75.089844 167.707031 76.386719 168.859375 C 110.066406 198.78125 148.15625 214.59375 186.539062 214.59375 C 225.25 214.59375 263.628906 198.519531 297.527344 168.113281 C 298.820312 166.953125 300.808594 167.0625 301.96875 168.355469 C 303.128906 169.644531 303.023438 171.636719 301.726562 172.796875 C 284.472656 188.273438 266.078125 200.21875 247.0625 208.296875 C 227.40625 216.652344 207.046875 220.882812 186.539062 220.882812 " fill-opacity="1" fill-rule="nonzero"/></g></svg>