<svg xmlns="http://www.w3.org/2000/svg" xmlns:xlink="http://www.w3.org/1999/xlink" width="500" zoomAndPan="magnify" viewBox="0 0 375 374.999991" height="500" preserveAspectRatio="xMidYMid meet" version="1.0"><defs><g/><clipPath id="71a9c79576"><path d="M 100.722656 227.65625 L 274.113281 227.65625 L 274.113281 272.90625 L 100.722656 272.90625 Z M 100.722656 227.65625 " clip-rule="nonzero"/></clipPath></defs>

<g clip-path="url(#71a9c79576)"><path fill="#ffffff" d="M 103.5 241.84375 C 103.554688 241.589844 103.605469 241.339844 103.675781 241.089844 L 103.894531 240.367188 C 104.011719 239.886719 104.226562 239.4375 104.371094 238.992188 C 104.761719 238.117188 105.171875 237.304688 105.664062 236.542969 C 106.175781 235.804688 106.710938 235.089844 107.335938 234.457031 C 108.582031 233.191406 110.046875 232.140625 111.78125 231.367188 L 112.105469 231.210938 L 112.441406 231.085938 C 112.667969 231.003906 112.898438 230.90625 113.132812 230.824219 C 113.601562 230.695312 114.089844 230.503906 114.597656 230.390625 C 115.105469 230.261719 115.632812 230.164062 116.179688 230.070312 C 116.1875 230.070312 116.191406 230.066406 116.199219 230.066406 C 116.847656 229.964844 117.019531 229.09375 116.441406 228.777344 C 115.898438 228.480469 115.308594 228.246094 114.703125 228.0625 C 114.101562 227.878906 113.476562 227.804688 112.839844 227.71875 C 112.519531 227.679688 112.203125 227.695312 111.878906 227.6875 L 111.394531 227.6875 C 111.230469 227.695312 111.070312 227.71875 110.910156 227.734375 C 108.3125 227.972656 105.78125 229.242188 103.929688 231.15625 C 102.992188 232.109375 102.257812 233.246094 101.691406 234.441406 C 101.144531 235.652344 100.835938 236.949219 100.726562 238.242188 C 100.714844 238.566406 100.722656 238.894531 100.722656 239.214844 C 100.726562 239.375 100.722656 239.535156 100.734375 239.695312 C 100.75 239.855469 100.773438 240.015625 100.792969 240.175781 C 100.84375 240.492188 100.871094 240.804688 100.941406 241.113281 C 101.011719 241.421875 101.089844 241.726562 101.1875 242.023438 C 101.347656 242.503906 101.542969 242.972656 101.777344 243.417969 C 102.136719 244.097656 103.164062 243.929688 103.269531 243.167969 C 103.332031 242.710938 103.40625 242.273438 103.5 241.84375 Z M 271.714844 243.167969 C 271.820312 243.929688 272.847656 244.097656 273.207031 243.417969 C 273.4375 242.972656 273.632812 242.503906 273.796875 242.023438 C 273.890625 241.726562 273.972656 241.421875 274.042969 241.113281 C 274.109375 240.804688 274.140625 240.492188 274.1875 240.175781 C 274.207031 240.015625 274.234375 239.855469 274.246094 239.695312 C 274.261719 239.535156 274.253906 239.375 274.257812 239.214844 C 274.261719 238.894531 274.265625 238.566406 274.253906 238.242188 C 274.144531 236.949219 273.835938 235.652344 273.289062 234.441406 C 272.722656 233.246094 271.988281 232.109375 271.050781 231.15625 C 269.199219 229.242188 266.667969 227.972656 264.070312 227.734375 C 263.910156 227.71875 263.75 227.695312 263.589844 227.6875 L 263.101562 227.6875 C 262.777344 227.695312 262.460938 227.679688 262.140625 227.71875 C 261.503906 227.804688 260.878906 227.878906 260.277344 228.0625 C 259.671875 228.246094 259.085938 228.480469 258.539062 228.777344 C 257.960938 229.09375 258.132812 229.964844 258.785156 230.066406 C 258.789062 230.066406 258.792969 230.070312 258.800781 230.070312 C 259.351562 230.164062 259.878906 230.261719 260.382812 230.390625 C 260.890625 230.503906 261.378906 230.695312 261.851562 230.824219 C 262.085938 230.90625 262.3125 231.003906 262.539062 231.085938 L 262.875 231.210938 L 263.203125 231.367188 C 264.9375 232.140625 266.398438 233.191406 267.644531 234.457031 C 268.273438 235.089844 268.804688 235.804688 269.316406 236.542969 C 269.8125 237.304688 270.222656 238.117188 270.609375 238.992188 C 270.757812 239.4375 270.972656 239.886719 271.085938 240.367188 L 271.304688 241.089844 C 271.375 241.339844 271.425781 241.589844 271.480469 241.84375 C 271.574219 242.273438 271.648438 242.710938 271.714844 243.167969 Z M 186.851562 272.863281 C 173.089844 272.863281 159.417969 270.042969 146.21875 264.484375 C 133.445312 259.105469 121.082031 251.148438 109.472656 240.835938 C 108.59375 240.054688 108.511719 238.707031 109.292969 237.828125 C 110.074219 236.953125 111.421875 236.871094 112.296875 237.652344 C 135.09375 257.902344 160.875 268.605469 186.851562 268.605469 C 213.054688 268.605469 239.027344 257.726562 261.972656 237.148438 C 262.847656 236.363281 264.191406 236.433594 264.976562 237.308594 C 265.761719 238.183594 265.691406 239.53125 264.8125 240.316406 C 253.136719 250.792969 240.6875 258.878906 227.816406 264.34375 C 214.511719 270 200.730469 272.863281 186.851562 272.863281 " fill-opacity="1" fill-rule="nonzero"/></g>

<g fill="#ffffff" fill-opacity="1"><g transform="translate(126.574219, 140.121041)"><g><path d="M 15.765625 0.40625 C 13.148438 0.40625 10.695312 -0.0234375 8.40625 -0.890625 C 6.113281 -1.765625 4.125 -3.015625 2.4375 -4.640625 C 2.039062 -5.046875 1.84375 -5.5 1.84375 -6 C 1.84375 -6.59375 2.109375 -7.15625 2.640625 -7.6875 C 3.066406 -8.113281 3.535156 -8.328125 4.046875 -8.328125 C 4.578125 -8.328125 5.21875 -8.019531 5.96875 -7.40625 C 7.21875 -6.257812 8.703125 -5.367188 10.421875 -4.734375 C 12.148438 -4.109375 13.929688 -3.796875 15.765625 -3.796875 C 17.535156 -3.796875 18.910156 -4.097656 19.890625 -4.703125 C 20.878906 -5.304688 21.375 -6.15625 21.375 -7.25 C 21.375 -8.394531 20.835938 -9.320312 19.765625 -10.03125 C 18.703125 -10.738281 16.890625 -11.367188 14.328125 -11.921875 C 10.296875 -12.804688 7.363281 -13.96875 5.53125 -15.40625 C 3.707031 -16.851562 2.796875 -18.707031 2.796875 -20.96875 C 2.796875 -22.414062 3.273438 -23.707031 4.234375 -24.84375 C 5.203125 -25.976562 6.546875 -26.859375 8.265625 -27.484375 C 9.984375 -28.109375 11.953125 -28.421875 14.171875 -28.421875 C 16.648438 -28.421875 18.859375 -28.015625 20.796875 -27.203125 C 22.734375 -26.390625 24.207031 -25.25 25.21875 -23.78125 C 25.5625 -23.21875 25.734375 -22.738281 25.734375 -22.34375 C 25.710938 -21.675781 25.378906 -21.097656 24.734375 -20.609375 C 24.390625 -20.367188 23.988281 -20.25 23.53125 -20.25 C 22.707031 -20.25 22.03125 -20.570312 21.5 -21.21875 C 20.71875 -22.15625 19.679688 -22.890625 18.390625 -23.421875 C 17.097656 -23.953125 15.691406 -24.21875 14.171875 -24.21875 C 12.273438 -24.21875 10.800781 -23.929688 9.75 -23.359375 C 8.695312 -22.785156 8.171875 -21.988281 8.171875 -20.96875 C 8.171875 -19.957031 8.679688 -19.125 9.703125 -18.46875 C 10.734375 -17.820312 12.515625 -17.203125 15.046875 -16.609375 C 17.847656 -15.941406 20.101562 -15.1875 21.8125 -14.34375 C 23.519531 -13.507812 24.765625 -12.515625 25.546875 -11.359375 C 26.335938 -10.210938 26.734375 -8.84375 26.734375 -7.25 C 26.734375 -5.726562 26.28125 -4.382812 25.375 -3.21875 C 24.46875 -2.0625 23.1875 -1.164062 21.53125 -0.53125 C 19.882812 0.09375 17.960938 0.40625 15.765625 0.40625 Z M 15.765625 0.40625 "/></g></g></g>

<g fill="#ffffff" fill-opacity="1"><g transform="translate(155.148111, 140.121041)"><g><path d="M 6.078125 0.40625 C 5.285156 0.40625 4.644531 0.191406 4.15625 -0.234375 C 3.675781 -0.660156 3.4375 -1.25 3.4375 -2 L 3.4375 -26.015625 C 3.4375 -26.765625 3.675781 -27.351562 4.15625 -27.78125 C 4.644531 -28.207031 5.285156 -28.421875 6.078125 -28.421875 C 6.859375 -28.421875 7.5 -28.207031 8 -27.78125 C 8.507812 -27.351562 8.765625 -26.765625 8.765625 -26.015625 L 8.765625 -2 C 8.765625 -1.25 8.507812 -0.660156 8 -0.234375 C 7.5 0.191406 6.859375 0.40625 6.078125 0.40625 Z M 5.921875 -31.09375 C 4.992188 -31.09375 4.222656 -31.378906 3.609375 -31.953125 C 2.992188 -32.535156 2.6875 -33.238281 2.6875 -34.0625 C 2.6875 -34.914062 2.992188 -35.628906 3.609375 -36.203125 C 4.222656 -36.773438 4.992188 -37.0625 5.921875 -37.0625 C 6.828125 -37.0625 7.585938 -36.773438 8.203125 -36.203125 C 8.816406 -35.628906 9.125 -34.914062 9.125 -34.0625 C 9.125 -33.238281 8.816406 -32.535156 8.203125 -31.953125 C 7.585938 -31.378906 6.828125 -31.09375 5.921875 -31.09375 Z M 5.921875 -31.09375 "/></g></g></g>

<g fill="#ffffff" fill-opacity="1"><g transform="translate(167.354047, 140.121041)"><g><path d="M 7.359375 0 C 5.648438 0 4.300781 -0.410156 3.3125 -1.234375 C 2.332031 -2.066406 1.84375 -3.164062 1.84375 -4.53125 C 1.84375 -5.539062 2.039062 -6.425781 2.4375 -7.1875 C 2.84375 -7.945312 3.617188 -8.753906 4.765625 -9.609375 L 20.5 -21.5 C 20.84375 -21.757812 21.085938 -21.992188 21.234375 -22.203125 C 21.378906 -22.421875 21.453125 -22.679688 21.453125 -22.984375 C 21.453125 -23.597656 20.988281 -23.90625 20.0625 -23.90625 L 5.40625 -23.90625 C 4.632812 -23.90625 3.972656 -24.082031 3.421875 -24.4375 C 2.878906 -24.800781 2.609375 -25.300781 2.609375 -25.9375 C 2.609375 -26.601562 2.875 -27.113281 3.40625 -27.46875 C 3.9375 -27.832031 4.601562 -28.015625 5.40625 -28.015625 L 21.296875 -28.015625 C 23.035156 -28.015625 24.390625 -27.617188 25.359375 -26.828125 C 26.335938 -26.046875 26.828125 -24.9375 26.828125 -23.5 C 26.828125 -22.40625 26.625 -21.5 26.21875 -20.78125 C 25.820312 -20.0625 25.050781 -19.273438 23.90625 -18.421875 L 8.171875 -6.53125 C 7.816406 -6.257812 7.566406 -6.007812 7.421875 -5.78125 C 7.273438 -5.550781 7.203125 -5.28125 7.203125 -4.96875 C 7.203125 -4.40625 7.832031 -4.125 9.09375 -4.125 L 24.34375 -4.125 C 25.113281 -4.125 25.769531 -3.941406 26.3125 -3.578125 C 26.863281 -3.222656 27.140625 -2.722656 27.140625 -2.078125 C 27.140625 -1.410156 26.875 -0.894531 26.34375 -0.53125 C 25.8125 -0.175781 25.144531 0 24.34375 0 Z M 7.359375 0 "/></g></g></g>

<g fill="#ffffff" fill-opacity="1"><g transform="translate(196.328128, 140.121041)"><g><path d="M 6.078125 0.40625 C 5.285156 0.40625 4.644531 0.191406 4.15625 -0.234375 C 3.675781 -0.660156 3.4375 -1.25 3.4375 -2 L 3.4375 -26.015625 C 3.4375 -26.765625 3.675781 -27.351562 4.15625 -27.78125 C 4.644531 -28.207031 5.285156 -28.421875 6.078125 -28.421875 C 6.859375 -28.421875 7.5 -28.207031 8 -27.78125 C 8.507812 -27.351562 8.765625 -26.765625 8.765625 -26.015625 L 8.765625 -2 C 8.765625 -1.25 8.507812 -0.660156 8 -0.234375 C 7.5 0.191406 6.859375 0.40625 6.078125 0.40625 Z M 5.921875 -31.09375 C 4.992188 -31.09375 4.222656 -31.378906 3.609375 -31.953125 C 2.992188 -32.535156 2.6875 -33.238281 2.6875 -34.0625 C 2.6875 -34.914062 2.992188 -35.628906 3.609375 -36.203125 C 4.222656 -36.773438 4.992188 -37.0625 5.921875 -37.0625 C 6.828125 -37.0625 7.585938 -36.773438 8.203125 -36.203125 C 8.816406 -35.628906 9.125 -34.914062 9.125 -34.0625 C 9.125 -33.238281 8.816406 -32.535156 8.203125 -31.953125 C 7.585938 -31.378906 6.828125 -31.09375 5.921875 -31.09375 Z M 5.921875 -31.09375 "/></g></g></g>

<g fill="#ffffff" fill-opacity="1"><g transform="translate(208.534064, 140.121041)"><g><path d="M 4.6875 0.40625 C 3.882812 0.40625 3.242188 0.191406 2.765625 -0.234375 C 2.285156 -0.660156 2.046875 -1.25 2.046875 -2 L 2.046875 -17.09375 C 2.046875 -20.644531 3.148438 -23.421875 5.359375 -25.421875 C 7.578125 -27.421875 10.648438 -28.421875 14.578125 -28.421875 C 18.492188 -28.421875 21.554688 -27.421875 23.765625 -25.421875 C 25.984375 -23.421875 27.09375 -20.644531 27.09375 -17.09375 L 27.09375 -2 C 27.09375 -1.25 26.851562 -0.660156 26.375 -0.234375 C 25.894531 0.191406 25.253906 0.40625 24.453125 0.40625 C 23.660156 0.40625 23.015625 0.1875 22.515625 -0.25 C 22.023438 -0.695312 21.78125 -1.28125 21.78125 -2 L 21.78125 -17.21875 C 21.78125 -19.476562 21.164062 -21.207031 19.9375 -22.40625 C 18.707031 -23.613281 16.921875 -24.21875 14.578125 -24.21875 C 12.222656 -24.21875 10.429688 -23.613281 9.203125 -22.40625 C 7.972656 -21.207031 7.359375 -19.476562 7.359375 -17.21875 L 7.359375 -2 C 7.359375 -1.28125 7.113281 -0.695312 6.625 -0.25 C 6.132812 0.1875 5.488281 0.40625 4.6875 0.40625 Z M 4.6875 0.40625 "/></g></g></g><g fill="#ffffff" fill-opacity="1"><g transform="translate(237.679676, 140.121041)"><g/></g></g>

<g fill="#ffffff" fill-opacity="1"><g transform="translate(87.304686, 195.621038)"><g><path d="M 23.8125 0.40625 C 22.132812 0.40625 21.1875 -0.179688 20.96875 -1.359375 C 20.46875 -4.210938 19.472656 -6.585938 17.984375 -8.484375 C 16.503906 -10.378906 14.351562 -12.0625 11.53125 -13.53125 L 7.5625 -10.25 L 7.5625 -2 C 7.5625 -1.28125 7.3125 -0.695312 6.8125 -0.25 C 6.320312 0.1875 5.679688 0.40625 4.890625 0.40625 C 4.085938 0.40625 3.441406 0.191406 2.953125 -0.234375 C 2.472656 -0.660156 2.234375 -1.25 2.234375 -2 L 2.234375 -26.015625 C 2.234375 -26.765625 2.472656 -27.351562 2.953125 -27.78125 C 3.441406 -28.207031 4.085938 -28.421875 4.890625 -28.421875 C 5.679688 -28.421875 6.320312 -28.195312 6.8125 -27.75 C 7.3125 -27.3125 7.5625 -26.734375 7.5625 -26.015625 L 7.5625 -16.046875 L 20.9375 -27.703125 C 21.414062 -28.148438 21.976562 -28.375 22.625 -28.375 C 23.257812 -28.375 23.816406 -28.125 24.296875 -27.625 C 24.804688 -27.0625 25.0625 -26.539062 25.0625 -26.0625 C 25.0625 -25.5 24.738281 -24.9375 24.09375 -24.375 L 14.890625 -16.375 C 18.097656 -14.988281 20.65625 -13.03125 22.5625 -10.5 C 24.46875 -7.976562 25.609375 -5.195312 25.984375 -2.15625 C 26.054688 -1.46875 25.878906 -0.867188 25.453125 -0.359375 C 25.023438 0.148438 24.476562 0.40625 23.8125 0.40625 Z M 23.8125 0.40625 "/></g></g></g>

<g fill="#ffffff" fill-opacity="1"><g transform="translate(115.118199, 195.621038)"><g><path d="M 4.6875 0.359375 C 3.882812 0.359375 3.242188 0.144531 2.765625 -0.28125 C 2.285156 -0.707031 2.046875 -1.296875 2.046875 -2.046875 L 2.046875 -16.046875 C 2.046875 -19.921875 3.148438 -22.953125 5.359375 -25.140625 C 7.578125 -27.328125 10.660156 -28.421875 14.609375 -28.421875 C 17.203125 -28.421875 19.441406 -27.925781 21.328125 -26.9375 C 23.222656 -25.945312 24.671875 -24.519531 25.671875 -22.65625 C 26.679688 -20.789062 27.1875 -18.585938 27.1875 -16.046875 L 27.1875 -2.046875 C 27.1875 -1.296875 26.941406 -0.707031 26.453125 -0.28125 C 25.972656 0.144531 25.335938 0.359375 24.546875 0.359375 C 23.742188 0.359375 23.09375 0.140625 22.59375 -0.296875 C 22.101562 -0.734375 21.859375 -1.316406 21.859375 -2.046875 L 21.859375 -8.5625 L 7.359375 -8.5625 L 7.359375 -2.046875 C 7.359375 -1.316406 7.113281 -0.734375 6.625 -0.296875 C 6.132812 0.140625 5.488281 0.359375 4.6875 0.359375 Z M 21.859375 -12.6875 L 21.859375 -16.171875 C 21.859375 -18.835938 21.25 -20.84375 20.03125 -22.1875 C 18.820312 -23.539062 17.015625 -24.21875 14.609375 -24.21875 C 9.773438 -24.21875 7.359375 -21.535156 7.359375 -16.171875 L 7.359375 -12.6875 Z M 21.859375 -12.6875 "/></g></g></g>

<g fill="#ffffff" fill-opacity="1"><g transform="translate(144.3324, 195.621038)"><g><path d="M 2.234375 -22.09375 C 2.234375 -23.96875 2.773438 -25.421875 3.859375 -26.453125 C 4.941406 -27.492188 6.441406 -28.015625 8.359375 -28.015625 L 15.484375 -28.015625 C 19.460938 -28.015625 22.46875 -27.238281 24.5 -25.6875 C 26.53125 -24.144531 27.546875 -21.84375 27.546875 -18.78125 C 27.546875 -15.914062 26.695312 -13.679688 25 -12.078125 C 23.300781 -10.484375 21.023438 -9.6875 18.171875 -9.6875 L 24.265625 -3.640625 C 24.742188 -3.160156 24.984375 -2.613281 24.984375 -2 C 24.984375 -1.363281 24.703125 -0.800781 24.140625 -0.3125 C 23.554688 0.132812 22.984375 0.359375 22.421875 0.359375 C 21.640625 0.359375 20.929688 0.0078125 20.296875 -0.6875 L 11.65625 -9.53125 L 7.5625 -9.53125 L 7.5625 -2 C 7.5625 -1.25 7.304688 -0.660156 6.796875 -0.234375 C 6.296875 0.191406 5.660156 0.40625 4.890625 0.40625 C 4.085938 0.40625 3.441406 0.191406 2.953125 -0.234375 C 2.472656 -0.660156 2.234375 -1.25 2.234375 -2 Z M 15.328125 -13.65625 C 17.085938 -13.65625 18.460938 -13.828125 19.453125 -14.171875 C 20.441406 -14.515625 21.140625 -15.050781 21.546875 -15.78125 C 21.960938 -16.519531 22.171875 -17.519531 22.171875 -18.78125 C 22.171875 -20.59375 21.617188 -21.898438 20.515625 -22.703125 C 19.410156 -23.503906 17.679688 -23.90625 15.328125 -23.90625 L 9.28125 -23.90625 C 8.75 -23.90625 8.328125 -23.726562 8.015625 -23.375 C 7.710938 -23.03125 7.5625 -22.550781 7.5625 -21.9375 L 7.5625 -13.65625 Z M 15.328125 -13.65625 "/></g></g></g>

<g fill="#ffffff" fill-opacity="1"><g transform="translate(173.706681, 195.621038)"><g><path d="M 24.90625 -28.421875 C 25.695312 -28.421875 26.332031 -28.207031 26.8125 -27.78125 C 27.300781 -27.351562 27.546875 -26.765625 27.546875 -26.015625 L 27.546875 -21.8125 C 27.546875 -18.269531 26.648438 -15.382812 24.859375 -13.15625 C 23.066406 -10.925781 20.570312 -9.570312 17.375 -9.09375 L 17.375 -2 C 17.375 -1.28125 17.125 -0.695312 16.625 -0.25 C 16.132812 0.1875 15.488281 0.40625 14.6875 0.40625 C 13.882812 0.40625 13.242188 0.191406 12.765625 -0.234375 C 12.285156 -0.660156 12.046875 -1.25 12.046875 -2 L 12.046875 -9.09375 C 8.816406 -9.570312 6.304688 -10.914062 4.515625 -13.125 C 2.734375 -15.34375 1.84375 -18.238281 1.84375 -21.8125 L 1.84375 -26.015625 C 1.84375 -26.765625 2.082031 -27.351562 2.5625 -27.78125 C 3.039062 -28.207031 3.679688 -28.421875 4.484375 -28.421875 C 5.285156 -28.421875 5.929688 -28.195312 6.421875 -27.75 C 6.921875 -27.3125 7.171875 -26.734375 7.171875 -26.015625 L 7.171875 -21.703125 C 7.171875 -18.921875 7.816406 -16.789062 9.109375 -15.3125 C 10.398438 -13.832031 12.257812 -13.09375 14.6875 -13.09375 C 17.113281 -13.09375 18.972656 -13.832031 20.265625 -15.3125 C 21.566406 -16.789062 22.21875 -18.921875 22.21875 -21.703125 L 22.21875 -26.015625 C 22.21875 -26.734375 22.460938 -27.3125 22.953125 -27.75 C 23.453125 -28.195312 24.101562 -28.421875 24.90625 -28.421875 Z M 24.90625 -28.421875 "/></g></g></g>

<g fill="#ffffff" fill-opacity="1"><g transform="translate(203.080961, 195.621038)"><g><path d="M 8.640625 0 C 6.617188 0 5.046875 -0.53125 3.921875 -1.59375 C 2.796875 -2.664062 2.234375 -4.160156 2.234375 -6.078125 L 2.234375 -22.09375 C 2.234375 -23.96875 2.773438 -25.421875 3.859375 -26.453125 C 4.941406 -27.492188 6.441406 -28.015625 8.359375 -28.015625 L 20.8125 -28.015625 C 21.613281 -28.015625 22.226562 -27.832031 22.65625 -27.46875 C 23.082031 -27.113281 23.296875 -26.601562 23.296875 -25.9375 C 23.296875 -25.300781 23.078125 -24.800781 22.640625 -24.4375 C 22.203125 -24.082031 21.59375 -23.90625 20.8125 -23.90625 L 9.28125 -23.90625 C 8.75 -23.90625 8.328125 -23.726562 8.015625 -23.375 C 7.710938 -23.03125 7.5625 -22.550781 7.5625 -21.9375 L 7.5625 -16.375 L 17.78125 -16.375 C 18.570312 -16.375 19.179688 -16.191406 19.609375 -15.828125 C 20.035156 -15.472656 20.25 -14.960938 20.25 -14.296875 C 20.25 -13.648438 20.03125 -13.144531 19.59375 -12.78125 C 19.15625 -12.425781 18.550781 -12.25 17.78125 -12.25 L 7.5625 -12.25 L 7.5625 -6.078125 C 7.5625 -5.460938 7.710938 -4.984375 8.015625 -4.640625 C 8.328125 -4.296875 8.75 -4.125 9.28125 -4.125 L 21.703125 -4.125 C 22.492188 -4.125 23.101562 -3.941406 23.53125 -3.578125 C 23.957031 -3.222656 24.171875 -2.710938 24.171875 -2.046875 C 24.171875 -1.398438 23.953125 -0.894531 23.515625 -0.53125 C 23.078125 -0.175781 22.472656 0 21.703125 0 Z M 8.640625 0 "/></g></g></g>

<g fill="#ffffff" fill-opacity="1"><g transform="translate(229.093609, 195.621038)"><g><path d="M 2.234375 -22.09375 C 2.234375 -23.96875 2.773438 -25.421875 3.859375 -26.453125 C 4.941406 -27.492188 6.441406 -28.015625 8.359375 -28.015625 L 15.484375 -28.015625 C 19.460938 -28.015625 22.46875 -27.238281 24.5 -25.6875 C 26.53125 -24.144531 27.546875 -21.84375 27.546875 -18.78125 C 27.546875 -15.914062 26.695312 -13.679688 25 -12.078125 C 23.300781 -10.484375 21.023438 -9.6875 18.171875 -9.6875 L 24.265625 -3.640625 C 24.742188 -3.160156 24.984375 -2.613281 24.984375 -2 C 24.984375 -1.363281 24.703125 -0.800781 24.140625 -0.3125 C 23.554688 0.132812 22.984375 0.359375 22.421875 0.359375 C 21.640625 0.359375 20.929688 0.0078125 20.296875 -0.6875 L 11.65625 -9.53125 L 7.5625 -9.53125 L 7.5625 -2 C 7.5625 -1.25 7.304688 -0.660156 6.796875 -0.234375 C 6.296875 0.191406 5.660156 0.40625 4.890625 0.40625 C 4.085938 0.40625 3.441406 0.191406 2.953125 -0.234375 C 2.472656 -0.660156 2.234375 -1.25 2.234375 -2 Z M 15.328125 -13.65625 C 17.085938 -13.65625 18.460938 -13.828125 19.453125 -14.171875 C 20.441406 -14.515625 21.140625 -15.050781 21.546875 -15.78125 C 21.960938 -16.519531 22.171875 -17.519531 22.171875 -18.78125 C 22.171875 -20.59375 21.617188 -21.898438 20.515625 -22.703125 C 19.410156 -23.503906 17.679688 -23.90625 15.328125 -23.90625 L 9.28125 -23.90625 C 8.75 -23.90625 8.328125 -23.726562 8.015625 -23.375 C 7.710938 -23.03125 7.5625 -22.550781 7.5625 -21.9375 L 7.5625 -13.65625 Z M 15.328125 -13.65625 "/></g></g></g>

<g fill="#ffffff" fill-opacity="1"><g transform="translate(258.46789, 195.621038)"><g><path d="M 4.6875 0.359375 C 3.882812 0.359375 3.242188 0.144531 2.765625 -0.28125 C 2.285156 -0.707031 2.046875 -1.296875 2.046875 -2.046875 L 2.046875 -16.046875 C 2.046875 -19.921875 3.148438 -22.953125 5.359375 -25.140625 C 7.578125 -27.328125 10.660156 -28.421875 14.609375 -28.421875 C 17.203125 -28.421875 19.441406 -27.925781 21.328125 -26.9375 C 23.222656 -25.945312 24.671875 -24.519531 25.671875 -22.65625 C 26.679688 -20.789062 27.1875 -18.585938 27.1875 -16.046875 L 27.1875 -2.046875 C 27.1875 -1.296875 26.941406 -0.707031 26.453125 -0.28125 C 25.972656 0.144531 25.335938 0.359375 24.546875 0.359375 C 23.742188 0.359375 23.09375 0.140625 22.59375 -0.296875 C 22.101562 -0.734375 21.859375 -1.316406 21.859375 -2.046875 L 21.859375 -8.5625 L 7.359375 -8.5625 L 7.359375 -2.046875 C 7.359375 -1.316406 7.113281 -0.734375 6.625 -0.296875 C 6.132812 0.140625 5.488281 0.359375 4.6875 0.359375 Z M 21.859375 -12.6875 L 21.859375 -16.171875 C 21.859375 -18.835938 21.25 -20.84375 20.03125 -22.1875 C 18.820312 -23.539062 17.015625 -24.21875 14.609375 -24.21875 C 9.773438 -24.21875 7.359375 -21.535156 7.359375 -16.171875 L 7.359375 -12.6875 Z M 21.859375 -12.6875 "/></g></g></g></svg>